<svg fill="none" height="103" viewBox="0 0 91 103" width="91" xmlns="http://www.w3.org/2000/svg" xmlns:xlink="http://www.w3.org/1999/xlink"><filter id="a" color-interpolation-filters="sRGB" filterUnits="userSpaceOnUse" height="63.8703" width="71.1864" x="1.36938" y=".503052"><feFlood flood-opacity="0" result="BackgroundImageFix"/><feBlend in="SourceGraphic" in2="BackgroundImageFix" mode="normal" result="shape"/><feGaussianBlur result="effect1_foregroundBlur_1_551" stdDeviation="10"/></filter><filter id="b" color-interpolation-filters="sRGB" filterUnits="userSpaceOnUse" height="123.5" width="131.667" x="-24" y="3"><feFlood flood-opacity="0" result="BackgroundImageFix"/><feGaussianBlur in="BackgroundImageFix" stdDeviation="12"/><feComposite in2="SourceAlpha" operator="in" result="effect1_backgroundBlur_1_551"/><feBlend in="SourceGraphic" in2="effect1_backgroundBlur_1_551" mode="normal" result="shape"/></filter><filter id="c" color-interpolation-filters="sRGB" filterUnits="userSpaceOnUse" height="71" width="87" x="28" y="29"><feFlood flood-opacity="0" result="BackgroundImageFix"/><feGaussianBlur in="BackgroundImageFix" stdDeviation="12"/><feComposite in2="SourceAlpha" operator="in" result="effect1_backgroundBlur_1_551"/><feBlend in="SourceGraphic" in2="effect1_backgroundBlur_1_551" mode="normal" result="shape"/></filter><filter id="d" color-interpolation-filters="sRGB" filterUnits="userSpaceOnUse" height="39" width="39" x="44" y="45"><feFlood flood-opacity="0" result="BackgroundImageFix"/><feGaussianBlur in="BackgroundImageFix" stdDeviation="7.5"/><feComposite in2="SourceAlpha" operator="in" result="effect1_backgroundBlur_1_551"/><feColorMatrix in="SourceAlpha" result="hardAlpha" type="matrix" values="0 0 0 0 0 0 0 0 0 0 0 0 0 0 0 0 0 0 127 0"/><feOffset dx="5" dy="5"/><feGaussianBlur stdDeviation="5"/><feColorMatrix type="matrix" values="0 0 0 0 0.15375 0 0 0 0 0.522433 0 0 0 0 0.9 0 0 0 0.5 0"/><feBlend in2="effect1_backgroundBlur_1_551" mode="normal" result="effect2_dropShadow_1_551"/><feBlend in="SourceGraphic" in2="effect2_dropShadow_1_551" mode="normal" result="shape"/></filter><filter id="e" color-interpolation-filters="sRGB" filterUnits="userSpaceOnUse" height="36.0941" width="59.2948" x="2.27148" y="28.8301"><feFlood flood-opacity="0" result="BackgroundImageFix"/><feGaussianBlur in="BackgroundImageFix" stdDeviation="7.5"/><feComposite in2="SourceAlpha" operator="in" result="effect1_backgroundBlur_1_551"/><feColorMatrix in="SourceAlpha" result="hardAlpha" type="matrix" values="0 0 0 0 0 0 0 0 0 0 0 0 0 0 0 0 0 0 127 0"/><feOffset dx="5" dy="5"/><feGaussianBlur stdDeviation="5"/><feColorMatrix type="matrix" values="0 0 0 0 0.15375 0 0 0 0 0.522433 0 0 0 0 0.9 0 0 0 0.5 0"/><feBlend in2="effect1_backgroundBlur_1_551" mode="normal" result="effect2_dropShadow_1_551"/><feBlend in="SourceGraphic" in2="effect2_dropShadow_1_551" mode="normal" result="shape"/></filter><linearGradient id="f" gradientUnits="userSpaceOnUse" x1="72.811" x2="-3.51153" y1="18.5698" y2="41.6915"><stop offset="0" stop-color="#39affd"/><stop offset="1" stop-color="#477fff"/></linearGradient><linearGradient id="g"><stop offset="0" stop-color="#fff" stop-opacity=".25"/><stop offset="1" stop-color="#fff" stop-opacity="0"/></linearGradient><linearGradient id="h" gradientUnits="userSpaceOnUse" x1="14" x2="73.6371" xlink:href="#g" y1="36.5628" y2="104.064"/><linearGradient id="i" gradientUnits="userSpaceOnUse" x1="58.8898" x2="73.4904" xlink:href="#g" y1="56.4465" y2="82.6517"/><linearGradient id="j"><stop offset="0" stop-color="#fff"/><stop offset="1" stop-color="#fff" stop-opacity=".2"/></linearGradient><linearGradient id="k" gradientUnits="userSpaceOnUse" x1="67.3619" x2="57.3368" xlink:href="#j" y1="61.6252" y2="61.9521"/><linearGradient id="l"><stop offset="0" stop-color="#fff"/><stop offset="1" stop-color="#fff" stop-opacity="0"/></linearGradient><linearGradient id="m" gradientUnits="userSpaceOnUse" x1="59.9695" x2="67.6117" xlink:href="#l" y1="63.0191" y2="63.0613"/><linearGradient id="n" gradientUnits="userSpaceOnUse" x1="44.4893" x2="12.6062" xlink:href="#j" y1="44.9305" y2="49.9277"/><linearGradient id="o" gradientUnits="userSpaceOnUse" x1="20.4272" x2="45.2858" xlink:href="#l" y1="45.8743" y2="46.534"/><path d="m61.3535 15.4998-27.2681-7.3065c-9.8908-2.65023-17.2014 1.59804-19.8603 11.5214l-9.00563 33.6093c-2.70254 10.086 1.53935 17.2903 11.43013 19.9405l27.2681 7.3065c10.0503 2.6929 17.1633-1.4688 19.8659-11.5548l9.0055-33.6093c2.659-9.9234-1.3853-17.2142-11.4356-19.9071z" fill="url(#f)"/><g filter="url(#a)" opacity=".5"><path d="m31.2666 43.4442c-5.6277-.5987-9.8972-5.3465-9.8972-11.006s4.2695-10.4073 9.8973-11.006l8.0928-.8609c7.0507-.75 13.1963 4.7765 13.1963 11.8669s-6.1457 12.617-13.1963 11.8669z" fill="#0062ff"/></g><g filter="url(#b)"><path d="m82.6522 49.7963c0-13.7169-8.3155-21.7963-22.3876-21.7963h-36.8734c-14.07571 0-22.3912 8.0794-22.3912 21.7963v29.8756c0 13.7169 8.31549 21.8281 22.3912 21.8281h36.8879c14.0721 0 22.3876-8.1112 22.3876-21.8281s-.0145-28.3602-.0145-29.8756z" fill="#3ea0fe" fill-opacity=".35"/><path d="m83.1522 49.7963c0-6.9605-2.1122-12.551-6.0681-16.4004-3.9541-3.8475-9.6891-5.8959-16.8195-5.8959h-36.8734c-7.1322 0-12.8681 2.0484-16.82267 5.8959-3.95641 3.8494-6.06853 9.4399-6.06853 16.4004v29.8756c0 6.9604 2.11208 12.5587 6.06815 16.4159 3.95445 3.8556 9.69035 5.9122 16.82305 5.9122h36.8879c7.1309 0 12.8659-2.0566 16.8199-5.9122 3.9556-3.8573 6.0677-9.4555 6.0677-16.4159 0-6.8586-.0037-13.9488-.0073-19.5137-.0018-2.7832-.0036-5.1847-.005-6.985-.0013-1.7995-.0022-2.9983-.0022-3.3769z" stroke="url(#h)" stroke-linecap="round" stroke-linejoin="round"/></g><g filter="url(#c)"><path d="m53.1971 66.5825c1.1022 4.9937 5.4973 8.5071 10.5152 8.4158h22.5064c2.0878 0 3.7813-1.7225 3.7813-3.8515v-13.2907c-.0045-2.1245-1.6935-3.8515-3.7813-3.8561h-22.9096c-5.7079.0183-10.318 4.7379-10.3091 10.554 0 .6807.0672 1.3615.1971 2.0285z" fill="#3ea0fe" fill-opacity=".35"/><path d="m52.7064 66.6781h-.0002l.0027.0122c1.1518 5.2186 5.7479 8.9016 11.008 8.808h22.5018c2.3723 0 4.2813-1.9548 4.2813-4.3515v-13.2907-.0011c-.005-2.3902-1.9076-4.3498-4.2803-4.355h-.001-22.9096-.0016c-5.9923.0192-10.8167 4.9715-10.8075 11.0543 0 .7135.0705 1.4261.2064 2.1238z" stroke="url(#i)" stroke-linecap="round" stroke-linejoin="round"/></g><g filter="url(#d)"><circle cx="63.5" cy="64.5" fill="url(#k)" r="4.5"/><circle cx="63.5" cy="64.5" r="4.4" stroke="url(#m)" stroke-opacity=".5" stroke-width=".2"/></g><g filter="url(#e)"><path d="m43.4121 49.9241h-23.03c-1.7241-.007-3.1178-1.3766-3.1106-3.0576.0073-1.6739 1.3974-3.0293 3.1106-3.0364h23.0445c1.7241-.0071 3.1324 1.3519 3.1397 3.0329.0072 1.6845-1.3866 3.0541-3.1106 3.0611h-.0291z" fill="url(#n)"/><path d="m43.4266 43.9301h.0004c1.6714-.0069 3.0322 1.31 3.0393 2.9333.007 1.6269-1.3397 2.9538-3.0108 2.9607h-.0289-.0145-23.0298c-1.6712-.0069-3.0178-1.3339-3.0108-2.9572.007-1.6166 1.3503-2.9298 3.0108-2.9368z" stroke="url(#o)" stroke-opacity=".5" stroke-width=".2"/></g></svg>